<mxfile host="app.diagrams.net" modified="2022-07-22T14:30:42.908Z" agent="5.0 (X11; Linux x86_64) AppleWebKit/537.36 (KHTML, like Gecko) Chrome/101.0.0.0 Safari/537.36" etag="CGQ3JTDxZiQxXXb7f8Pn" version="20.1.1" type="github">
  <diagram id="dOq2iKTdfz3kDRcgQmI2" name="Page-1">
    <mxGraphModel dx="2845" dy="1133" grid="1" gridSize="10" guides="1" tooltips="1" connect="1" arrows="1" fold="1" page="1" pageScale="1" pageWidth="850" pageHeight="1100" math="0" shadow="0">
      <root>
        <mxCell id="0" />
        <mxCell id="1" parent="0" />
        <mxCell id="9LAQy8hBT_E5rGK8-dmj-1" value="" style="rounded=0;whiteSpace=wrap;html=1;" vertex="1" parent="1">
          <mxGeometry x="-580" y="890" width="1420" height="190" as="geometry" />
        </mxCell>
        <mxCell id="9LAQy8hBT_E5rGK8-dmj-3" value="" style="endArrow=none;html=1;rounded=0;exitX=0;exitY=0.25;exitDx=0;exitDy=0;entryX=1;entryY=0.25;entryDx=0;entryDy=0;" edge="1" parent="1">
          <mxGeometry width="50" height="50" relative="1" as="geometry">
            <mxPoint x="-580" y="1020" as="sourcePoint" />
            <mxPoint x="850" y="1020" as="targetPoint" />
          </mxGeometry>
        </mxCell>
        <mxCell id="9LAQy8hBT_E5rGK8-dmj-6" value="" style="shape=table;html=1;whiteSpace=wrap;startSize=0;container=1;collapsible=0;childLayout=tableLayout;" vertex="1" parent="1">
          <mxGeometry x="-580" y="890" width="220" height="190" as="geometry" />
        </mxCell>
        <mxCell id="9LAQy8hBT_E5rGK8-dmj-7" value="" style="shape=tableRow;horizontal=0;startSize=0;swimlaneHead=0;swimlaneBody=0;top=0;left=0;bottom=0;right=0;collapsible=0;dropTarget=0;fillColor=none;points=[[0,0.5],[1,0.5]];portConstraint=eastwest;" vertex="1" parent="9LAQy8hBT_E5rGK8-dmj-6">
          <mxGeometry width="220" height="63" as="geometry" />
        </mxCell>
        <mxCell id="9LAQy8hBT_E5rGK8-dmj-8" value="" style="shape=partialRectangle;html=1;whiteSpace=wrap;connectable=0;fillColor=none;top=0;left=0;bottom=0;right=0;overflow=hidden;" vertex="1" parent="9LAQy8hBT_E5rGK8-dmj-7">
          <mxGeometry width="73" height="63" as="geometry">
            <mxRectangle width="73" height="63" as="alternateBounds" />
          </mxGeometry>
        </mxCell>
        <mxCell id="9LAQy8hBT_E5rGK8-dmj-9" value="2" style="shape=partialRectangle;html=1;whiteSpace=wrap;connectable=0;fillColor=none;top=0;left=0;bottom=0;right=0;overflow=hidden;" vertex="1" parent="9LAQy8hBT_E5rGK8-dmj-7">
          <mxGeometry x="73" width="74" height="63" as="geometry">
            <mxRectangle width="74" height="63" as="alternateBounds" />
          </mxGeometry>
        </mxCell>
        <mxCell id="9LAQy8hBT_E5rGK8-dmj-10" value="" style="shape=partialRectangle;html=1;whiteSpace=wrap;connectable=0;fillColor=none;top=0;left=0;bottom=0;right=0;overflow=hidden;" vertex="1" parent="9LAQy8hBT_E5rGK8-dmj-7">
          <mxGeometry x="147" width="73" height="63" as="geometry">
            <mxRectangle width="73" height="63" as="alternateBounds" />
          </mxGeometry>
        </mxCell>
        <mxCell id="9LAQy8hBT_E5rGK8-dmj-11" value="" style="shape=tableRow;horizontal=0;startSize=0;swimlaneHead=0;swimlaneBody=0;top=0;left=0;bottom=0;right=0;collapsible=0;dropTarget=0;fillColor=none;points=[[0,0.5],[1,0.5]];portConstraint=eastwest;" vertex="1" parent="9LAQy8hBT_E5rGK8-dmj-6">
          <mxGeometry y="63" width="220" height="64" as="geometry" />
        </mxCell>
        <mxCell id="9LAQy8hBT_E5rGK8-dmj-12" value="" style="shape=partialRectangle;html=1;whiteSpace=wrap;connectable=0;fillColor=none;top=0;left=0;bottom=0;right=0;overflow=hidden;" vertex="1" parent="9LAQy8hBT_E5rGK8-dmj-11">
          <mxGeometry width="73" height="64" as="geometry">
            <mxRectangle width="73" height="64" as="alternateBounds" />
          </mxGeometry>
        </mxCell>
        <mxCell id="9LAQy8hBT_E5rGK8-dmj-13" value="" style="shape=partialRectangle;html=1;whiteSpace=wrap;connectable=0;fillColor=none;top=0;left=0;bottom=0;right=0;overflow=hidden;" vertex="1" parent="9LAQy8hBT_E5rGK8-dmj-11">
          <mxGeometry x="73" width="74" height="64" as="geometry">
            <mxRectangle width="74" height="64" as="alternateBounds" />
          </mxGeometry>
        </mxCell>
        <mxCell id="9LAQy8hBT_E5rGK8-dmj-14" value="" style="shape=partialRectangle;html=1;whiteSpace=wrap;connectable=0;fillColor=none;top=0;left=0;bottom=0;right=0;overflow=hidden;" vertex="1" parent="9LAQy8hBT_E5rGK8-dmj-11">
          <mxGeometry x="147" width="73" height="64" as="geometry">
            <mxRectangle width="73" height="64" as="alternateBounds" />
          </mxGeometry>
        </mxCell>
        <mxCell id="9LAQy8hBT_E5rGK8-dmj-15" value="" style="shape=tableRow;horizontal=0;startSize=0;swimlaneHead=0;swimlaneBody=0;top=0;left=0;bottom=0;right=0;collapsible=0;dropTarget=0;fillColor=none;points=[[0,0.5],[1,0.5]];portConstraint=eastwest;" vertex="1" parent="9LAQy8hBT_E5rGK8-dmj-6">
          <mxGeometry y="127" width="220" height="63" as="geometry" />
        </mxCell>
        <mxCell id="9LAQy8hBT_E5rGK8-dmj-16" value="" style="shape=partialRectangle;html=1;whiteSpace=wrap;connectable=0;fillColor=none;top=0;left=0;bottom=0;right=0;overflow=hidden;" vertex="1" parent="9LAQy8hBT_E5rGK8-dmj-15">
          <mxGeometry width="73" height="63" as="geometry">
            <mxRectangle width="73" height="63" as="alternateBounds" />
          </mxGeometry>
        </mxCell>
        <mxCell id="9LAQy8hBT_E5rGK8-dmj-17" value="" style="shape=partialRectangle;html=1;whiteSpace=wrap;connectable=0;fillColor=none;top=0;left=0;bottom=0;right=0;overflow=hidden;" vertex="1" parent="9LAQy8hBT_E5rGK8-dmj-15">
          <mxGeometry x="73" width="74" height="63" as="geometry">
            <mxRectangle width="74" height="63" as="alternateBounds" />
          </mxGeometry>
        </mxCell>
        <mxCell id="9LAQy8hBT_E5rGK8-dmj-18" value="" style="shape=partialRectangle;html=1;whiteSpace=wrap;connectable=0;fillColor=none;top=0;left=0;bottom=0;right=0;overflow=hidden;pointerEvents=1;" vertex="1" parent="9LAQy8hBT_E5rGK8-dmj-15">
          <mxGeometry x="147" width="73" height="63" as="geometry">
            <mxRectangle width="73" height="63" as="alternateBounds" />
          </mxGeometry>
        </mxCell>
        <mxCell id="9LAQy8hBT_E5rGK8-dmj-19" style="edgeStyle=orthogonalEdgeStyle;rounded=0;orthogonalLoop=1;jettySize=auto;html=1;exitX=1;exitY=0;exitDx=0;exitDy=0;entryX=0.976;entryY=-0.018;entryDx=0;entryDy=0;entryPerimeter=0;" edge="1" parent="1" source="9LAQy8hBT_E5rGK8-dmj-1" target="9LAQy8hBT_E5rGK8-dmj-1">
          <mxGeometry relative="1" as="geometry" />
        </mxCell>
        <mxCell id="9LAQy8hBT_E5rGK8-dmj-20" value="" style="endArrow=none;html=1;rounded=0;exitX=0;exitY=0.25;exitDx=0;exitDy=0;entryX=1;entryY=0.25;entryDx=0;entryDy=0;" edge="1" parent="1">
          <mxGeometry width="50" height="50" relative="1" as="geometry">
            <mxPoint x="-580" y="1020" as="sourcePoint" />
            <mxPoint x="850" y="1020" as="targetPoint" />
          </mxGeometry>
        </mxCell>
        <mxCell id="9LAQy8hBT_E5rGK8-dmj-21" value="" style="endArrow=none;html=1;rounded=0;exitX=0;exitY=0.25;exitDx=0;exitDy=0;entryX=1;entryY=0.25;entryDx=0;entryDy=0;" edge="1" parent="1">
          <mxGeometry width="50" height="50" relative="1" as="geometry">
            <mxPoint x="-580" y="950" as="sourcePoint" />
            <mxPoint x="850" y="950" as="targetPoint" />
          </mxGeometry>
        </mxCell>
        <mxCell id="9LAQy8hBT_E5rGK8-dmj-22" value="" style="ellipse;whiteSpace=wrap;html=1;strokeWidth=2;fillWeight=2;hachureGap=8;fillColor=#990000;fillStyle=dots;sketch=1;" vertex="1" parent="1">
          <mxGeometry x="-495" y="970" width="50" height="30" as="geometry" />
        </mxCell>
        <mxCell id="9LAQy8hBT_E5rGK8-dmj-23" value="" style="rounded=1;whiteSpace=wrap;html=1;strokeWidth=2;fillWeight=4;hachureGap=8;hachureAngle=45;fillColor=#1ba1e2;sketch=1;arcSize=10;" vertex="1" parent="1">
          <mxGeometry x="-417" y="908.5" width="50" height="30" as="geometry" />
        </mxCell>
        <mxCell id="9LAQy8hBT_E5rGK8-dmj-24" value="1" style="text;html=1;strokeColor=none;fillColor=none;align=center;verticalAlign=middle;whiteSpace=wrap;rounded=0;" vertex="1" parent="1">
          <mxGeometry x="-426" y="907" width="60" height="30" as="geometry" />
        </mxCell>
        <mxCell id="9LAQy8hBT_E5rGK8-dmj-25" value="3" style="text;html=1;strokeColor=none;fillColor=none;align=center;verticalAlign=middle;whiteSpace=wrap;rounded=0;" vertex="1" parent="1">
          <mxGeometry x="-580" y="905.5" width="60" height="30" as="geometry" />
        </mxCell>
        <mxCell id="9LAQy8hBT_E5rGK8-dmj-26" value="4" style="text;html=1;strokeColor=none;fillColor=none;align=center;verticalAlign=middle;whiteSpace=wrap;rounded=0;" vertex="1" parent="1">
          <mxGeometry x="-426" y="970" width="60" height="30" as="geometry" />
        </mxCell>
        <mxCell id="9LAQy8hBT_E5rGK8-dmj-27" value="6" style="text;html=1;strokeColor=none;fillColor=none;align=center;verticalAlign=middle;whiteSpace=wrap;rounded=0;" vertex="1" parent="1">
          <mxGeometry x="-426" y="1030" width="60" height="30" as="geometry" />
        </mxCell>
        <mxCell id="9LAQy8hBT_E5rGK8-dmj-28" value="5" style="text;html=1;strokeColor=none;fillColor=none;align=center;verticalAlign=middle;whiteSpace=wrap;rounded=0;" vertex="1" parent="1">
          <mxGeometry x="-575" y="970" width="60" height="30" as="geometry" />
        </mxCell>
        <mxCell id="9LAQy8hBT_E5rGK8-dmj-29" value="7" style="text;html=1;strokeColor=none;fillColor=none;align=center;verticalAlign=middle;whiteSpace=wrap;rounded=0;" vertex="1" parent="1">
          <mxGeometry x="-500" y="1040" width="60" height="30" as="geometry" />
        </mxCell>
        <mxCell id="9LAQy8hBT_E5rGK8-dmj-30" value="8" style="text;html=1;strokeColor=none;fillColor=none;align=center;verticalAlign=middle;whiteSpace=wrap;rounded=0;" vertex="1" parent="1">
          <mxGeometry x="-575" y="1040" width="60" height="30" as="geometry" />
        </mxCell>
        <mxCell id="9LAQy8hBT_E5rGK8-dmj-31" value="" style="endArrow=classic;html=1;rounded=0;" edge="1" parent="1">
          <mxGeometry width="50" height="50" relative="1" as="geometry">
            <mxPoint x="-580" y="810" as="sourcePoint" />
            <mxPoint x="-580" y="890" as="targetPoint" />
          </mxGeometry>
        </mxCell>
        <mxCell id="9LAQy8hBT_E5rGK8-dmj-32" value="" style="endArrow=classic;html=1;rounded=0;" edge="1" parent="1">
          <mxGeometry width="50" height="50" relative="1" as="geometry">
            <mxPoint x="-320" y="810" as="sourcePoint" />
            <mxPoint x="-320" y="890" as="targetPoint" />
          </mxGeometry>
        </mxCell>
        <mxCell id="9LAQy8hBT_E5rGK8-dmj-33" value="" style="endArrow=classic;html=1;rounded=0;" edge="1" parent="1">
          <mxGeometry width="50" height="50" relative="1" as="geometry">
            <mxPoint x="-40" y="810" as="sourcePoint" />
            <mxPoint x="-40" y="890" as="targetPoint" />
          </mxGeometry>
        </mxCell>
        <mxCell id="9LAQy8hBT_E5rGK8-dmj-34" value="" style="endArrow=classic;html=1;rounded=0;" edge="1" parent="1">
          <mxGeometry width="50" height="50" relative="1" as="geometry">
            <mxPoint x="560" y="810" as="sourcePoint" />
            <mxPoint x="560" y="890" as="targetPoint" />
          </mxGeometry>
        </mxCell>
        <mxCell id="9LAQy8hBT_E5rGK8-dmj-35" value="" style="endArrow=classic;html=1;rounded=0;" edge="1" parent="1">
          <mxGeometry width="50" height="50" relative="1" as="geometry">
            <mxPoint x="839" y="810" as="sourcePoint" />
            <mxPoint x="839" y="890" as="targetPoint" />
          </mxGeometry>
        </mxCell>
        <mxCell id="9LAQy8hBT_E5rGK8-dmj-36" value="" style="endArrow=classic;html=1;rounded=0;" edge="1" parent="1">
          <mxGeometry width="50" height="50" relative="1" as="geometry">
            <mxPoint x="840" y="570" as="sourcePoint" />
            <mxPoint x="840" y="650" as="targetPoint" />
          </mxGeometry>
        </mxCell>
        <mxCell id="9LAQy8hBT_E5rGK8-dmj-37" value="" style="endArrow=classic;html=1;rounded=0;" edge="1" parent="1">
          <mxGeometry width="50" height="50" relative="1" as="geometry">
            <mxPoint x="240" y="810" as="sourcePoint" />
            <mxPoint x="240" y="890" as="targetPoint" />
          </mxGeometry>
        </mxCell>
        <mxCell id="9LAQy8hBT_E5rGK8-dmj-38" value="" style="shape=curlyBracket;whiteSpace=wrap;html=1;rounded=1;flipH=1;rotation=-90;" vertex="1" parent="1">
          <mxGeometry x="-462.07" y="662.53" width="30" height="264.98" as="geometry" />
        </mxCell>
        <mxCell id="9LAQy8hBT_E5rGK8-dmj-39" value="4" style="text;html=1;strokeColor=none;fillColor=none;align=center;verticalAlign=middle;whiteSpace=wrap;rounded=0;" vertex="1" parent="1">
          <mxGeometry x="-477" y="730" width="60" height="30" as="geometry" />
        </mxCell>
        <mxCell id="9LAQy8hBT_E5rGK8-dmj-40" value="" style="ellipse;whiteSpace=wrap;html=1;strokeWidth=2;fillWeight=2;hachureGap=8;fillColor=#990000;fillStyle=dots;sketch=1;" vertex="1" parent="1">
          <mxGeometry x="-230" y="973" width="60" height="27" as="geometry" />
        </mxCell>
        <mxCell id="9LAQy8hBT_E5rGK8-dmj-41" value="" style="ellipse;whiteSpace=wrap;html=1;strokeWidth=2;fillWeight=2;hachureGap=8;fillColor=#990000;fillStyle=dots;sketch=1;" vertex="1" parent="1">
          <mxGeometry x="60" y="908.5" width="60" height="27" as="geometry" />
        </mxCell>
        <mxCell id="9LAQy8hBT_E5rGK8-dmj-42" value="" style="ellipse;whiteSpace=wrap;html=1;strokeWidth=2;fillWeight=2;hachureGap=8;fillColor=#990000;fillStyle=dots;sketch=1;" vertex="1" parent="1">
          <mxGeometry x="360" y="1031.5" width="60" height="27" as="geometry" />
        </mxCell>
        <mxCell id="9LAQy8hBT_E5rGK8-dmj-43" value="" style="ellipse;whiteSpace=wrap;html=1;strokeWidth=2;fillWeight=2;hachureGap=8;fillColor=#990000;fillStyle=dots;sketch=1;" vertex="1" parent="1">
          <mxGeometry x="690" y="971.5" width="60" height="27" as="geometry" />
        </mxCell>
        <mxCell id="9LAQy8hBT_E5rGK8-dmj-44" value="" style="shape=table;html=1;whiteSpace=wrap;startSize=0;container=1;collapsible=0;childLayout=tableLayout;" vertex="1" parent="1">
          <mxGeometry x="840" y="890" width="200" height="190" as="geometry" />
        </mxCell>
        <mxCell id="9LAQy8hBT_E5rGK8-dmj-45" value="" style="shape=tableRow;horizontal=0;startSize=0;swimlaneHead=0;swimlaneBody=0;top=0;left=0;bottom=0;right=0;collapsible=0;dropTarget=0;fillColor=none;points=[[0,0.5],[1,0.5]];portConstraint=eastwest;" vertex="1" parent="9LAQy8hBT_E5rGK8-dmj-44">
          <mxGeometry width="200" height="63" as="geometry" />
        </mxCell>
        <mxCell id="9LAQy8hBT_E5rGK8-dmj-46" value="" style="shape=partialRectangle;html=1;whiteSpace=wrap;connectable=0;fillColor=none;top=0;left=0;bottom=0;right=0;overflow=hidden;" vertex="1" parent="9LAQy8hBT_E5rGK8-dmj-45">
          <mxGeometry width="67" height="63" as="geometry">
            <mxRectangle width="67" height="63" as="alternateBounds" />
          </mxGeometry>
        </mxCell>
        <mxCell id="9LAQy8hBT_E5rGK8-dmj-47" value="" style="shape=partialRectangle;html=1;whiteSpace=wrap;connectable=0;fillColor=none;top=0;left=0;bottom=0;right=0;overflow=hidden;" vertex="1" parent="9LAQy8hBT_E5rGK8-dmj-45">
          <mxGeometry x="67" width="66" height="63" as="geometry">
            <mxRectangle width="66" height="63" as="alternateBounds" />
          </mxGeometry>
        </mxCell>
        <mxCell id="9LAQy8hBT_E5rGK8-dmj-48" value="" style="shape=partialRectangle;html=1;whiteSpace=wrap;connectable=0;fillColor=none;top=0;left=0;bottom=0;right=0;overflow=hidden;" vertex="1" parent="9LAQy8hBT_E5rGK8-dmj-45">
          <mxGeometry x="133" width="67" height="63" as="geometry">
            <mxRectangle width="67" height="63" as="alternateBounds" />
          </mxGeometry>
        </mxCell>
        <mxCell id="9LAQy8hBT_E5rGK8-dmj-49" value="" style="shape=tableRow;horizontal=0;startSize=0;swimlaneHead=0;swimlaneBody=0;top=0;left=0;bottom=0;right=0;collapsible=0;dropTarget=0;fillColor=none;points=[[0,0.5],[1,0.5]];portConstraint=eastwest;" vertex="1" parent="9LAQy8hBT_E5rGK8-dmj-44">
          <mxGeometry y="63" width="200" height="64" as="geometry" />
        </mxCell>
        <mxCell id="9LAQy8hBT_E5rGK8-dmj-50" value="" style="shape=partialRectangle;html=1;whiteSpace=wrap;connectable=0;fillColor=none;top=0;left=0;bottom=0;right=0;overflow=hidden;" vertex="1" parent="9LAQy8hBT_E5rGK8-dmj-49">
          <mxGeometry width="67" height="64" as="geometry">
            <mxRectangle width="67" height="64" as="alternateBounds" />
          </mxGeometry>
        </mxCell>
        <mxCell id="9LAQy8hBT_E5rGK8-dmj-51" value="" style="shape=partialRectangle;html=1;whiteSpace=wrap;connectable=0;fillColor=none;top=0;left=0;bottom=0;right=0;overflow=hidden;" vertex="1" parent="9LAQy8hBT_E5rGK8-dmj-49">
          <mxGeometry x="67" width="66" height="64" as="geometry">
            <mxRectangle width="66" height="64" as="alternateBounds" />
          </mxGeometry>
        </mxCell>
        <mxCell id="9LAQy8hBT_E5rGK8-dmj-52" value="" style="shape=partialRectangle;html=1;whiteSpace=wrap;connectable=0;fillColor=none;top=0;left=0;bottom=0;right=0;overflow=hidden;" vertex="1" parent="9LAQy8hBT_E5rGK8-dmj-49">
          <mxGeometry x="133" width="67" height="64" as="geometry">
            <mxRectangle width="67" height="64" as="alternateBounds" />
          </mxGeometry>
        </mxCell>
        <mxCell id="9LAQy8hBT_E5rGK8-dmj-53" value="" style="shape=tableRow;horizontal=0;startSize=0;swimlaneHead=0;swimlaneBody=0;top=0;left=0;bottom=0;right=0;collapsible=0;dropTarget=0;fillColor=none;points=[[0,0.5],[1,0.5]];portConstraint=eastwest;" vertex="1" parent="9LAQy8hBT_E5rGK8-dmj-44">
          <mxGeometry y="127" width="200" height="63" as="geometry" />
        </mxCell>
        <mxCell id="9LAQy8hBT_E5rGK8-dmj-54" value="" style="shape=partialRectangle;html=1;whiteSpace=wrap;connectable=0;fillColor=none;top=0;left=0;bottom=0;right=0;overflow=hidden;" vertex="1" parent="9LAQy8hBT_E5rGK8-dmj-53">
          <mxGeometry width="67" height="63" as="geometry">
            <mxRectangle width="67" height="63" as="alternateBounds" />
          </mxGeometry>
        </mxCell>
        <mxCell id="9LAQy8hBT_E5rGK8-dmj-55" value="" style="shape=partialRectangle;html=1;whiteSpace=wrap;connectable=0;fillColor=none;top=0;left=0;bottom=0;right=0;overflow=hidden;" vertex="1" parent="9LAQy8hBT_E5rGK8-dmj-53">
          <mxGeometry x="67" width="66" height="63" as="geometry">
            <mxRectangle width="66" height="63" as="alternateBounds" />
          </mxGeometry>
        </mxCell>
        <mxCell id="9LAQy8hBT_E5rGK8-dmj-56" value="" style="shape=partialRectangle;html=1;whiteSpace=wrap;connectable=0;fillColor=none;top=0;left=0;bottom=0;right=0;overflow=hidden;pointerEvents=1;" vertex="1" parent="9LAQy8hBT_E5rGK8-dmj-53">
          <mxGeometry x="133" width="67" height="63" as="geometry">
            <mxRectangle width="67" height="63" as="alternateBounds" />
          </mxGeometry>
        </mxCell>
        <mxCell id="9LAQy8hBT_E5rGK8-dmj-57" value="" style="rounded=0;whiteSpace=wrap;html=1;rotation=90;" vertex="1" parent="1">
          <mxGeometry x="690" y="540" width="500" height="200" as="geometry" />
        </mxCell>
        <mxCell id="9LAQy8hBT_E5rGK8-dmj-59" value="" style="ellipse;whiteSpace=wrap;html=1;strokeWidth=2;fillWeight=2;hachureGap=8;fillColor=#990000;fillStyle=dots;sketch=1;rotation=-60;" vertex="1" parent="1">
          <mxGeometry x="840" y="973" width="60" height="27" as="geometry" />
        </mxCell>
        <mxCell id="9LAQy8hBT_E5rGK8-dmj-60" value="" style="rounded=1;whiteSpace=wrap;html=1;strokeWidth=2;fillWeight=4;hachureGap=8;hachureAngle=45;fillColor=#1ba1e2;sketch=1;arcSize=10;rotation=90;" vertex="1" parent="1">
          <mxGeometry x="850" y="1031.5" width="50" height="30" as="geometry" />
        </mxCell>
        <mxCell id="9LAQy8hBT_E5rGK8-dmj-177" value="&lt;table border=&quot;1&quot; width=&quot;100%&quot; height=&quot;100%&quot; cellpadding=&quot;4&quot; style=&quot;width:100%;height:100%;border-collapse:collapse;&quot;&gt;&lt;tbody&gt;&lt;tr&gt;&lt;th align=&quot;center&quot;&gt;a1&lt;/th&gt;&lt;/tr&gt;&lt;tr&gt;&lt;td align=&quot;center&quot;&gt;(v,d)&lt;/td&gt;&lt;/tr&gt;&lt;tr&gt;&lt;td align=&quot;center&quot;&gt;(v,d)&lt;br&gt;&lt;/td&gt;&lt;/tr&gt;&lt;/tbody&gt;&lt;/table&gt;" style="text;html=1;strokeColor=none;fillColor=none;overflow=fill;" vertex="1" parent="1">
          <mxGeometry x="-300" y="160" width="160" height="140" as="geometry" />
        </mxCell>
        <mxCell id="9LAQy8hBT_E5rGK8-dmj-178" value="&lt;table border=&quot;1&quot; width=&quot;100%&quot; height=&quot;100%&quot; cellpadding=&quot;4&quot; style=&quot;width:100%;height:100%;border-collapse:collapse;&quot;&gt;&lt;tbody&gt;&lt;tr&gt;&lt;th align=&quot;center&quot;&gt;a2&lt;/th&gt;&lt;/tr&gt;&lt;tr&gt;&lt;td align=&quot;center&quot;&gt;(v,d)&lt;br&gt;&lt;/td&gt;&lt;/tr&gt;&lt;tr&gt;&lt;td align=&quot;center&quot;&gt;(v,d)&lt;br&gt;&lt;/td&gt;&lt;/tr&gt;&lt;/tbody&gt;&lt;/table&gt;" style="text;html=1;strokeColor=none;fillColor=none;overflow=fill;" vertex="1" parent="1">
          <mxGeometry x="-140" y="160" width="160" height="140" as="geometry" />
        </mxCell>
        <mxCell id="9LAQy8hBT_E5rGK8-dmj-179" value="&lt;table border=&quot;1&quot; width=&quot;100%&quot; height=&quot;100%&quot; cellpadding=&quot;4&quot; style=&quot;width:100%;height:100%;border-collapse:collapse;&quot;&gt;&lt;tbody&gt;&lt;tr&gt;&lt;th align=&quot;center&quot;&gt;a3&lt;/th&gt;&lt;/tr&gt;&lt;tr&gt;&lt;td align=&quot;center&quot;&gt;(v,d)&lt;br&gt;&lt;/td&gt;&lt;/tr&gt;&lt;tr&gt;&lt;td align=&quot;center&quot;&gt;(v,d)&lt;br&gt;&lt;/td&gt;&lt;/tr&gt;&lt;/tbody&gt;&lt;/table&gt;" style="text;html=1;strokeColor=none;fillColor=none;overflow=fill;" vertex="1" parent="1">
          <mxGeometry x="20" y="160" width="160" height="140" as="geometry" />
        </mxCell>
        <mxCell id="9LAQy8hBT_E5rGK8-dmj-180" value="&lt;table border=&quot;1&quot; width=&quot;100%&quot; height=&quot;100%&quot; cellpadding=&quot;4&quot; style=&quot;width:100%;height:100%;border-collapse:collapse;&quot;&gt;&lt;tbody&gt;&lt;tr&gt;&lt;th align=&quot;center&quot;&gt;a4&lt;/th&gt;&lt;/tr&gt;&lt;tr&gt;&lt;td align=&quot;center&quot;&gt;(v,d)&lt;br&gt;&lt;/td&gt;&lt;/tr&gt;&lt;tr&gt;&lt;td align=&quot;center&quot;&gt;(v,d)&lt;br&gt;&lt;/td&gt;&lt;/tr&gt;&lt;/tbody&gt;&lt;/table&gt;" style="text;html=1;strokeColor=none;fillColor=none;overflow=fill;" vertex="1" parent="1">
          <mxGeometry x="180" y="160" width="160" height="140" as="geometry" />
        </mxCell>
        <mxCell id="9LAQy8hBT_E5rGK8-dmj-181" value="&lt;table border=&quot;1&quot; width=&quot;100%&quot; height=&quot;100%&quot; cellpadding=&quot;4&quot; style=&quot;width:100%;height:100%;border-collapse:collapse;&quot;&gt;&lt;tbody&gt;&lt;tr&gt;&lt;th align=&quot;center&quot;&gt;a5&lt;/th&gt;&lt;/tr&gt;&lt;tr&gt;&lt;td align=&quot;center&quot;&gt;(v,d)&lt;br&gt;&lt;/td&gt;&lt;/tr&gt;&lt;tr&gt;&lt;td align=&quot;center&quot;&gt;(v,d)&lt;br&gt;&lt;/td&gt;&lt;/tr&gt;&lt;/tbody&gt;&lt;/table&gt;" style="text;html=1;strokeColor=none;fillColor=none;overflow=fill;" vertex="1" parent="1">
          <mxGeometry x="340" y="160" width="160" height="140" as="geometry" />
        </mxCell>
        <mxCell id="9LAQy8hBT_E5rGK8-dmj-185" value="" style="endArrow=none;dashed=1;html=1;dashPattern=1 3;strokeWidth=2;rounded=0;" edge="1" parent="1">
          <mxGeometry width="50" height="50" relative="1" as="geometry">
            <mxPoint x="20" y="400" as="sourcePoint" />
            <mxPoint x="20" y="300" as="targetPoint" />
          </mxGeometry>
        </mxCell>
        <mxCell id="9LAQy8hBT_E5rGK8-dmj-186" value="npc1" style="text;html=1;strokeColor=none;fillColor=none;align=center;verticalAlign=middle;whiteSpace=wrap;rounded=0;" vertex="1" parent="1">
          <mxGeometry x="-380" y="200" width="60" height="30" as="geometry" />
        </mxCell>
        <mxCell id="9LAQy8hBT_E5rGK8-dmj-187" value="npc2" style="text;html=1;strokeColor=none;fillColor=none;align=center;verticalAlign=middle;whiteSpace=wrap;rounded=0;" vertex="1" parent="1">
          <mxGeometry x="-380" y="250" width="60" height="30" as="geometry" />
        </mxCell>
        <mxCell id="9LAQy8hBT_E5rGK8-dmj-188" value="" style="endArrow=none;dashed=1;html=1;dashPattern=1 3;strokeWidth=2;rounded=0;entryX=0.5;entryY=1;entryDx=0;entryDy=0;" edge="1" parent="1" target="9LAQy8hBT_E5rGK8-dmj-187">
          <mxGeometry width="50" height="50" relative="1" as="geometry">
            <mxPoint x="-350" y="350" as="sourcePoint" />
            <mxPoint x="-310" y="310" as="targetPoint" />
          </mxGeometry>
        </mxCell>
        <mxCell id="9LAQy8hBT_E5rGK8-dmj-189" value="" style="endArrow=classic;startArrow=classic;html=1;rounded=0;exitX=0.282;exitY=-0.021;exitDx=0;exitDy=0;exitPerimeter=0;" edge="1" parent="1" source="9LAQy8hBT_E5rGK8-dmj-1" target="9LAQy8hBT_E5rGK8-dmj-178">
          <mxGeometry width="50" height="50" relative="1" as="geometry">
            <mxPoint x="-120" y="460" as="sourcePoint" />
            <mxPoint x="-70" y="410" as="targetPoint" />
          </mxGeometry>
        </mxCell>
        <mxCell id="9LAQy8hBT_E5rGK8-dmj-191" value="" style="endArrow=classic;startArrow=classic;html=1;rounded=0;entryX=0.5;entryY=1;entryDx=0;entryDy=0;" edge="1" parent="1" source="9LAQy8hBT_E5rGK8-dmj-38" target="9LAQy8hBT_E5rGK8-dmj-177">
          <mxGeometry width="50" height="50" relative="1" as="geometry">
            <mxPoint x="-260" y="380" as="sourcePoint" />
            <mxPoint x="-210" y="330" as="targetPoint" />
          </mxGeometry>
        </mxCell>
        <mxCell id="9LAQy8hBT_E5rGK8-dmj-192" value="" style="endArrow=classic;startArrow=classic;html=1;rounded=0;exitX=0.282;exitY=-0.021;exitDx=0;exitDy=0;exitPerimeter=0;" edge="1" parent="1">
          <mxGeometry width="50" height="50" relative="1" as="geometry">
            <mxPoint x="30.000000000000057" y="886.01" as="sourcePoint" />
            <mxPoint x="136.80226764835885" y="300" as="targetPoint" />
          </mxGeometry>
        </mxCell>
        <mxCell id="9LAQy8hBT_E5rGK8-dmj-193" value="" style="endArrow=classic;startArrow=classic;html=1;rounded=0;exitX=0.282;exitY=-0.021;exitDx=0;exitDy=0;exitPerimeter=0;entryX=0.5;entryY=1;entryDx=0;entryDy=0;" edge="1" parent="1" target="9LAQy8hBT_E5rGK8-dmj-180">
          <mxGeometry width="50" height="50" relative="1" as="geometry">
            <mxPoint x="280.00000000000006" y="886.01" as="sourcePoint" />
            <mxPoint x="386.80226764835885" y="300" as="targetPoint" />
          </mxGeometry>
        </mxCell>
        <mxCell id="9LAQy8hBT_E5rGK8-dmj-196" value="" style="endArrow=classic;startArrow=classic;html=1;rounded=0;exitX=0.881;exitY=0.005;exitDx=0;exitDy=0;exitPerimeter=0;entryX=0.569;entryY=1.007;entryDx=0;entryDy=0;entryPerimeter=0;" edge="1" parent="1" source="9LAQy8hBT_E5rGK8-dmj-1" target="9LAQy8hBT_E5rGK8-dmj-181">
          <mxGeometry width="50" height="50" relative="1" as="geometry">
            <mxPoint x="600" y="907" as="sourcePoint" />
            <mxPoint x="580" y="320.99" as="targetPoint" />
          </mxGeometry>
        </mxCell>
        <mxCell id="9LAQy8hBT_E5rGK8-dmj-197" style="edgeStyle=orthogonalEdgeStyle;rounded=0;orthogonalLoop=1;jettySize=auto;html=1;exitX=0.5;exitY=1;exitDx=0;exitDy=0;" edge="1" parent="1" source="9LAQy8hBT_E5rGK8-dmj-24" target="9LAQy8hBT_E5rGK8-dmj-24">
          <mxGeometry relative="1" as="geometry" />
        </mxCell>
        <mxCell id="9LAQy8hBT_E5rGK8-dmj-198" value="" style="rounded=1;whiteSpace=wrap;html=1;strokeWidth=2;fillWeight=4;hachureGap=8;hachureAngle=45;fillColor=#1ba1e2;sketch=1;" vertex="1" parent="1">
          <mxGeometry x="-492.5" y="907" width="47.5" height="35.5" as="geometry" />
        </mxCell>
        <mxCell id="9LAQy8hBT_E5rGK8-dmj-199" value="" style="curved=1;endArrow=classic;html=1;rounded=0;exitX=0.468;exitY=-0.016;exitDx=0;exitDy=0;exitPerimeter=0;entryX=0.25;entryY=1;entryDx=0;entryDy=0;" edge="1" parent="1" source="9LAQy8hBT_E5rGK8-dmj-7" target="9LAQy8hBT_E5rGK8-dmj-187">
          <mxGeometry width="50" height="50" relative="1" as="geometry">
            <mxPoint x="-540" y="590" as="sourcePoint" />
            <mxPoint x="-490" y="540" as="targetPoint" />
            <Array as="points">
              <mxPoint x="-600" y="570" />
              <mxPoint x="-540" y="370" />
            </Array>
          </mxGeometry>
        </mxCell>
        <mxCell id="9LAQy8hBT_E5rGK8-dmj-200" value="" style="curved=1;endArrow=classic;html=1;rounded=0;exitX=0.468;exitY=-0.016;exitDx=0;exitDy=0;exitPerimeter=0;entryX=0.25;entryY=1;entryDx=0;entryDy=0;" edge="1" parent="1" target="9LAQy8hBT_E5rGK8-dmj-186">
          <mxGeometry width="50" height="50" relative="1" as="geometry">
            <mxPoint x="-407.03999999999996" y="890.002" as="sourcePoint" />
            <mxPoint x="-295" y="281.01" as="targetPoint" />
            <Array as="points">
              <mxPoint x="-530" y="571.01" />
              <mxPoint x="-470" y="371.01" />
            </Array>
          </mxGeometry>
        </mxCell>
      </root>
    </mxGraphModel>
  </diagram>
</mxfile>
